<svg xmlns="http://www.w3.org/2000/svg" xmlns:svg="http://www.w3.org/2000/svg" id="svg3290" width="744.094" height="1052.362" version="1.1"><metadata id="metadata3295"/><g id="layer1"><g style="display:inline" id="g3879" transform="matrix(3.1607572,0,0,3.1607572,1289.8039,2829.9529)"><path id="path3773" d="m -287.05192,-768.95371 m 11.01179,28.68474 a 30.724865,30.724865 0 1 0 -22.02358,0 l -20.69627,53.92828 a 88.487611,88.487611 0 1 1 63.41612,0 z" style="text-anchor:middle;fill:#3fa652;stroke:#21552a;stroke-width:7.37396765;stroke-linejoin:round"/><text id="text7890-3-1" x="-402.742" y="-643.908" transform="scale(0.99041196,1.0096809)" xml:space="preserve" style="font-size:37.00550079px;font-style:normal;font-weight:400;line-height:125%;letter-spacing:0;word-spacing:0;fill:#20552a;fill-opacity:1;stroke:none;display:inline;font-family:Sans;-inkscape-font-specification:Sans"><tspan id="tspan3306" x="-402.742" y="-643.908" style="font-size:35.15522385px;font-style:normal;font-variant:normal;font-weight:400;font-stretch:normal;fill:#000;fill-opacity:1;font-family:OpenSymbol;-inkscape-font-specification:Sans">open</tspan></text><text id="text7890-3-1-1" x="-299.917" y="-644.536" transform="scale(0.99041196,1.0096809)" xml:space="preserve" style="font-size:37.00550079px;font-style:normal;font-weight:400;line-height:125%;letter-spacing:0;word-spacing:0;fill:#20552a;fill-opacity:1;stroke:none;display:inline;font-family:Sans;-inkscape-font-specification:Sans"><tspan id="tspan3306-2" x="-299.917" y="-644.536" style="font-size:35.15522385px;font-style:normal;font-variant:normal;font-weight:400;font-stretch:normal;fill:#000;fill-opacity:1;font-family:OpenSymbol;-inkscape-font-specification:Sans">source</tspan></text><text id="text7890-3-1-1-4" x="-368.474" y="-609.43" transform="scale(0.99041196,1.0096809)" xml:space="preserve" style="font-size:37.00550079px;font-style:normal;font-weight:400;line-height:125%;letter-spacing:0;word-spacing:0;fill:#20552a;fill-opacity:1;stroke:none;display:inline;font-family:Sans;-inkscape-font-specification:Sans"><tspan id="tspan3306-2-7" x="-368.474" y="-609.43" style="font-size:35.15522385px;font-style:normal;font-variant:normal;font-weight:400;font-stretch:normal;fill:#000;fill-opacity:1;font-family:OpenSymbol;-inkscape-font-specification:Sans">initiative</tspan></text><g id="g3797" transform="translate(-21.225811,-1.0146812)"><path id="path3015" d="m 669.28572,646.64789 c 0,13.01813 -10.55329,23.57141 -23.57143,23.57141 -13.01814,0 -23.57142,-10.55328 -23.57142,-23.57141 0,-13.01813 10.55328,-23.57141 23.57142,-23.57141 13.01814,0 23.57143,10.55328 23.57143,23.57141 z" transform="matrix(0.33912491,0,0,0.33852655,-402.53969,-908.3754)" style="fill:none;stroke:#000;stroke-width:6.66513872;stroke-miterlimit:4;stroke-opacity:1;stroke-dasharray:none"/><text id="text3793" x="-188.297" y="-685.33" xml:space="preserve" style="font-size:12.65519524px;font-style:normal;font-variant:normal;font-weight:700;font-stretch:normal;line-height:125%;letter-spacing:0;word-spacing:0;fill:#000;fill-opacity:1;stroke:none;font-family:OpenSymbol;-inkscape-font-specification:OpenSymbol Bold"><tspan id="tspan3795" x="-188.297" y="-685.33">R</tspan></text></g></g></g></svg>